<?xml version="1.0" encoding="UTF-8" standalone="no"?>
<svg
   width="78.6875"
   height="78.393753"
   xml:space="preserve"
   overflow="hidden"
   version="1.1"
   id="svg17"
   sodipodi:docname="CloseButton_10.svg"
   inkscape:version="1.3 (0e150ed6c4, 2023-07-21)"
   xmlns:inkscape="http://www.inkscape.org/namespaces/inkscape"
   xmlns:sodipodi="http://sodipodi.sourceforge.net/DTD/sodipodi-0.dtd"
   xmlns="http://www.w3.org/2000/svg"
   xmlns:svg="http://www.w3.org/2000/svg"><sodipodi:namedview
     id="namedview17"
     pagecolor="#ffffff"
     bordercolor="#000000"
     borderopacity="0.25"
     inkscape:showpageshadow="2"
     inkscape:pageopacity="0.0"
     inkscape:pagecheckerboard="0"
     inkscape:deskcolor="#d1d1d1"
     inkscape:zoom="1.4322344"
     inkscape:cx="39.448849"
     inkscape:cy="56.904092"
     inkscape:window-width="2560"
     inkscape:window-height="1369"
     inkscape:window-x="-8"
     inkscape:window-y="-8"
     inkscape:window-maximized="1"
     inkscape:current-layer="svg17" /><defs
     id="defs1"><clipPath
       id="clip0"><rect
         x="156"
         y="128"
         width="787"
         height="819"
         id="rect1" /></clipPath></defs><g
     clip-path="url(#clip0)"
     transform="matrix(0.1,0,0,0.1,-15.60625,-12.8)"
     id="g17"><rect
       x="159"
       y="128"
       width="780"
       height="780"
       fill="#ffffff"
       id="rect2" /><text
       font-family="Arial, Arial_MSFontService, sans-serif"
       font-weight="700"
       font-size="110px"
       transform="translate(499.993,295)"
       id="text2">-</text><text
       font-family="Arial, Arial_MSFontService, sans-serif"
       font-weight="700"
       font-size="110px"
       transform="translate(536.659,295)"
       id="text3">2</text><text
       font-family="Arial, Arial_MSFontService, sans-serif"
       font-weight="700"
       font-size="110px"
       transform="translate(450.997,427)"
       id="text4">mm</text><rect
       x="159.5"
       y="721.5"
       width="780"
       height="187"
       stroke="#000000"
       stroke-width="6.875"
       stroke-miterlimit="8"
       id="rect4" /><text
       fill="#ffffff"
       font-family="Arial, Arial_MSFontService, sans-serif"
       font-weight="700"
       font-size="110px"
       transform="translate(359.617,856)"
       id="text5">CLOSE</text><rect
       x="357.5"
       y="204.5"
       width="51.999901"
       height="182"
       stroke="#000000"
       stroke-width="6.875"
       stroke-miterlimit="8"
       id="rect5" /><path
       d="m 411.052,208 c 14.359,0.029 25.977,11.693 25.948,26.052 C 436.971,248.391 425.339,260 411,260 Z"
       fill="#fc3fcd"
       fill-rule="evenodd"
       id="path5" /><path
       d="m 411.052,269 c 14.359,0.029 25.977,11.693 25.948,26.052 C 436.971,309.391 425.339,321 411,321 Z"
       fill="#fc3fcd"
       fill-rule="evenodd"
       id="path6" /><path
       d="m 411.053,326 c 14.359,0.029 25.976,11.693 25.947,26.052 C 436.971,366.391 425.339,378 411.001,378 Z"
       fill="#fc3fcd"
       fill-rule="evenodd"
       id="path7" /><path
       d="m 222.5,720.5 137.177,-455 H 406.5 l -137.177,455 z"
       stroke="#000000"
       stroke-width="6.875"
       stroke-miterlimit="8"
       fill-rule="evenodd"
       id="path8" /><path
       d="M 0,455 136.432,0 H 183 L 46.5679,455 Z"
       stroke="#000000"
       stroke-width="6.875"
       stroke-miterlimit="8"
       fill-rule="evenodd"
       transform="matrix(-1,0,0,1,879.5,274.5)"
       id="path9" /><rect
       x="696.5"
       y="208.5"
       width="51.999901"
       height="182"
       stroke="#000000"
       stroke-width="6.875"
       stroke-miterlimit="8"
       id="rect9" /><path
       d="M 25.9481,52.0002 C 11.5886,51.9715 -0.0286824,40.3076 5.9574e-5,25.9481 0.0287608,11.609 11.661,-4.94951e-6 26.0001,-4.94951e-6 Z"
       fill="#fc3fcd"
       fill-rule="evenodd"
       transform="matrix(1,0,0,-1,668,262)"
       id="path10" /><path
       d="M 25.9481,52.0002 C 11.5886,51.9715 -0.0286824,40.3076 5.9574e-5,25.9481 0.0287608,11.609 11.661,-4.94951e-6 26.0001,-4.94951e-6 Z"
       fill="#fc3fcd"
       fill-rule="evenodd"
       transform="matrix(1,0,0,-1,668,321)"
       id="path11" /><path
       d="M 25.9481,52.0002 C 11.5886,51.9715 -0.0286824,40.3075 5.9574e-5,25.9481 0.0287608,11.609 11.661,-4.9495e-6 26.0001,-4.9495e-6 Z"
       fill="#fc3fcd"
       fill-rule="evenodd"
       transform="matrix(1,0,0,-1,668,378)"
       id="path12" /><path
       d="m 200,260.125 h 115.759 v 13.75 H 200 Z m 57.223,-33.51 72.692,40.385 -72.692,40.385 c -3.32,1.844 -7.505,0.648 -9.349,-2.671 -1.844,-3.319 -0.648,-7.505 2.671,-9.349 l 61.875,-34.374 v 12.019 l -61.875,-34.375 c -3.319,-1.844 -4.515,-6.029 -2.671,-9.349 1.844,-3.319 6.03,-4.515 9.349,-2.671 z"
       id="path13" /><path
       d="M 447,559 H 655.083"
       stroke="#000000"
       stroke-width="13.75"
       stroke-miterlimit="8"
       fill="none"
       fill-rule="evenodd"
       id="path14" /><path
       d="M 444,492 V 621.921"
       stroke="#000000"
       stroke-width="13.75"
       stroke-miterlimit="8"
       fill="none"
       fill-rule="evenodd"
       id="path15" /><path
       d="M 657,496 V 625.921"
       stroke="#000000"
       stroke-width="13.75"
       stroke-miterlimit="8"
       fill="none"
       fill-rule="evenodd"
       id="path16" /><path
       d="M 1.90972e-5,-6.875 115.759,-6.87468 v 13.75 L -1.90972e-5,6.875 Z M 57.2227,-40.3847 129.915,3.60887e-4 57.2225,40.385 c -3.3192,1.8439 -7.5047,0.6481 -9.3487,-2.6711 -1.8439,-3.3191 -0.6481,-7.5046 2.6711,-9.3486 L 112.42,-6.00952 V 6.01014 L 50.545,-28.365 c -3.3191,-1.844 -4.5149,-6.0295 -2.671,-9.3487 1.844,-3.3191 6.0295,-4.5149 9.3487,-2.671 z"
       transform="matrix(-1,0,0,1,900.921,265)"
       id="path17" /></g></svg>
