<?xml version="1.0" encoding="UTF-8" standalone="no"?>
<svg
   width="78.6875"
   height="78.393753"
   xml:space="preserve"
   overflow="hidden"
   version="1.1"
   id="svg12"
   sodipodi:docname="DFGripButton_10.svg"
   inkscape:version="1.3 (0e150ed6c4, 2023-07-21)"
   xmlns:inkscape="http://www.inkscape.org/namespaces/inkscape"
   xmlns:sodipodi="http://sodipodi.sourceforge.net/DTD/sodipodi-0.dtd"
   xmlns="http://www.w3.org/2000/svg"
   xmlns:svg="http://www.w3.org/2000/svg"><defs
     id="defs12" /><sodipodi:namedview
     id="namedview12"
     pagecolor="#ffffff"
     bordercolor="#000000"
     borderopacity="0.25"
     inkscape:showpageshadow="2"
     inkscape:pageopacity="0.0"
     inkscape:pagecheckerboard="0"
     inkscape:deskcolor="#d1d1d1"
     inkscape:zoom="1.4322344"
     inkscape:cx="39.448849"
     inkscape:cy="56.904092"
     inkscape:window-width="2560"
     inkscape:window-height="1369"
     inkscape:window-x="-8"
     inkscape:window-y="-8"
     inkscape:window-maximized="1"
     inkscape:current-layer="svg12" /><g
     transform="matrix(0.1,0,0,0.1,-107.00625,-100.1)"
     id="g12"><rect
       x="1073"
       y="1001"
       width="780"
       height="780"
       fill="#ffffff"
       id="rect1" /><rect
       x="1073.5"
       y="1594.5"
       width="780"
       height="187"
       stroke="#000000"
       stroke-width="6.875"
       stroke-miterlimit="8"
       id="rect2" /><text
       fill="#ffffff"
       font-family="Arial, Arial_MSFontService, sans-serif"
       font-weight="700"
       font-size="110px"
       transform="translate(1224.51,1729)"
       id="text2">DF_GRIP</text><rect
       x="1270.5"
       y="1077.5"
       width="51.999901"
       height="182"
       stroke="#000000"
       stroke-width="6.875"
       stroke-miterlimit="8"
       id="rect3" /><path
       d="m 1325.05,1081 c 14.36,0.03 25.98,11.69 25.95,26.05 -0.03,14.34 -11.66,25.95 -26,25.95 z"
       fill="#fc3fcd"
       fill-rule="evenodd"
       id="path3" /><path
       d="m 1325.05,1141 c 14.36,0.03 25.98,11.69 25.95,26.05 -0.03,14.34 -11.66,25.95 -26,25.95 z"
       fill="#fc3fcd"
       fill-rule="evenodd"
       id="path4" /><path
       d="m 1325.05,1199 c 14.36,0.03 25.98,11.69 25.95,26.05 -0.03,14.34 -11.66,25.95 -26,25.95 z"
       fill="#fc3fcd"
       fill-rule="evenodd"
       id="path5" /><path
       d="m 1136.5,1593.5 136.43,-455 h 46.57 l -136.43,455 z"
       stroke="#000000"
       stroke-width="6.875"
       stroke-miterlimit="8"
       fill-rule="evenodd"
       id="path6" /><path
       d="M 0,455 136.432,0 H 183 L 46.5679,455 Z"
       stroke="#000000"
       stroke-width="6.875"
       stroke-miterlimit="8"
       fill-rule="evenodd"
       transform="matrix(-1,0,0,1,1793.5,1147.5)"
       id="path7" /><rect
       x="1610.5"
       y="1081.5"
       width="51.999901"
       height="182"
       stroke="#000000"
       stroke-width="6.875"
       stroke-miterlimit="8"
       id="rect7" /><path
       d="M 25.9479,51.9998 C 11.5886,51.9711 -0.0286822,40.3073 5.95736e-5,25.9479 0.0287606,11.6089 11.6609,-4.94947e-6 26,-4.94947e-6 Z"
       fill="#fc3fcd"
       fill-rule="evenodd"
       transform="matrix(1,0,0,-1,1582,1135)"
       id="path8" /><path
       d="M 25.9479,51.9998 C 11.5886,51.9711 -0.0286822,40.3073 5.95736e-5,25.9479 0.0287606,11.6089 11.6609,-4.94947e-6 26,-4.94947e-6 Z"
       fill="#fc3fcd"
       fill-rule="evenodd"
       transform="matrix(1,0,0,-1,1582,1194)"
       id="path9" /><path
       d="M 25.9479,51.9998 C 11.5886,51.9711 -0.0286822,40.3073 5.95736e-5,25.9479 0.0287606,11.6089 11.6609,-4.94947e-6 26,-4.94947e-6 Z"
       fill="#fc3fcd"
       fill-rule="evenodd"
       transform="matrix(1,0,0,-1,1582,1251)"
       id="path10" /><path
       d="m 1114,1133.12 115.76,0.01 v 13.75 L 1114,1146.87 Z m 57.22,-33.5 72.7,40.38 -72.7,40.38 c -3.32,1.85 -7.5,0.65 -9.35,-2.67 -1.84,-3.32 -0.64,-7.5 2.68,-9.34 l 61.87,-34.38 v 12.02 l -61.87,-34.38 c -3.32,-1.84 -4.52,-6.02 -2.68,-9.34 1.85,-3.32 6.03,-4.52 9.35,-2.67 z"
       id="path11" /><path
       d="M 1.90972e-5,-6.875 115.759,-6.87468 v 13.75 L -1.90972e-5,6.875 Z M 57.2227,-40.3847 129.915,3.60887e-4 57.2225,40.385 c -3.3192,1.8439 -7.5047,0.6481 -9.3487,-2.6711 -1.8439,-3.3191 -0.6481,-7.5046 2.6711,-9.3486 L 112.42,-6.00952 V 6.01014 L 50.545,-28.365 c -3.3191,-1.844 -4.5149,-6.0295 -2.671,-9.3487 1.844,-3.3191 6.0295,-4.5149 9.3487,-2.671 z"
       transform="matrix(-1,0,0,1,1814.92,1138)"
       id="path12" /><rect
       x="1350"
       y="1055"
       width="234"
       height="234"
       fill="#0f9ed5"
       id="rect12" /></g></svg>
