<?xml version="1.0" encoding="UTF-8" standalone="no"?>
<svg
   width="78.6875"
   height="78.293747"
   xml:space="preserve"
   overflow="hidden"
   version="1.1"
   id="svg12"
   sodipodi:docname="FFGripButton_10.svg"
   inkscape:version="1.3 (0e150ed6c4, 2023-07-21)"
   xmlns:inkscape="http://www.inkscape.org/namespaces/inkscape"
   xmlns:sodipodi="http://sodipodi.sourceforge.net/DTD/sodipodi-0.dtd"
   xmlns="http://www.w3.org/2000/svg"
   xmlns:svg="http://www.w3.org/2000/svg"><defs
     id="defs12" /><sodipodi:namedview
     id="namedview12"
     pagecolor="#ffffff"
     bordercolor="#000000"
     borderopacity="0.25"
     inkscape:showpageshadow="2"
     inkscape:pageopacity="0.0"
     inkscape:pagecheckerboard="0"
     inkscape:deskcolor="#d1d1d1"
     inkscape:zoom="1.4322344"
     inkscape:cx="39.448849"
     inkscape:cy="56.904092"
     inkscape:window-width="2560"
     inkscape:window-height="1369"
     inkscape:window-x="-8"
     inkscape:window-y="-8"
     inkscape:window-maximized="1"
     inkscape:current-layer="svg12" /><g
     transform="matrix(0.1,0,0,0.1,-15.40625,-101.4)"
     id="g12"><rect
       x="157"
       y="1014"
       width="780"
       height="779"
       fill="#ffffff"
       id="rect1" /><rect
       x="157.5"
       y="1607.5"
       width="780"
       height="186"
       stroke="#000000"
       stroke-width="6.875"
       stroke-miterlimit="8"
       id="rect2" /><text
       fill="#ffffff"
       font-family="Arial, Arial_MSFontService, sans-serif"
       font-weight="700"
       font-size="110px"
       transform="translate(314.761,1741)"
       id="text2">FF_GRIP</text><rect
       x="354.5"
       y="1089.5"
       width="52.000301"
       height="182"
       stroke="#000000"
       stroke-width="6.875"
       stroke-miterlimit="8"
       id="rect3" /><path
       d="m 409.052,1093 c 14.359,0.03 25.977,11.69 25.948,26.05 -0.029,14.34 -11.661,25.95 -26,25.95 z"
       fill="#fc3fcd"
       fill-rule="evenodd"
       id="path3" /><path
       d="m 409.052,1154 c 14.359,0.03 25.977,11.69 25.948,26.05 -0.029,14.34 -11.661,25.95 -26,25.95 z"
       fill="#fc3fcd"
       fill-rule="evenodd"
       id="path4" /><path
       d="m 409.052,1212 c 14.359,0.03 25.977,11.69 25.948,26.05 -0.029,14.34 -11.661,25.95 -26,25.95 z"
       fill="#fc3fcd"
       fill-rule="evenodd"
       id="path5" /><path
       d="m 220.5,1605.5 136.432,-455 H 403.5 l -136.432,455 z"
       stroke="#000000"
       stroke-width="6.875"
       stroke-miterlimit="8"
       fill-rule="evenodd"
       id="path6" /><path
       d="M 0,454 136.432,0 H 183 L 46.5683,454 Z"
       stroke="#000000"
       stroke-width="6.875"
       stroke-miterlimit="8"
       fill-rule="evenodd"
       transform="matrix(-1,0,0,1,877.5,1160.5)"
       id="path7" /><rect
       x="694.5"
       y="1093.5"
       width="52.000198"
       height="182"
       stroke="#000000"
       stroke-width="6.875"
       stroke-miterlimit="8"
       id="rect7" /><path
       d="M 25.9481,52.0002 C 11.5886,51.9715 -0.0286824,40.3075 5.9574e-5,25.9481 0.0287608,11.609 11.661,-4.9495e-6 26.0001,-4.9495e-6 Z"
       fill="#fc3fcd"
       fill-rule="evenodd"
       transform="matrix(1,0,0,-1,666,1148)"
       id="path8" /><path
       d="M 25.9481,52.0002 C 11.5886,51.9715 -0.0286824,40.3076 5.9574e-5,25.9481 0.0287608,11.609 11.661,-4.94951e-6 26.0001,-4.94951e-6 Z"
       fill="#fc3fcd"
       fill-rule="evenodd"
       transform="matrix(1,0,0,-1,666,1207)"
       id="path9" /><path
       d="M 25.9481,52.0002 C 11.5886,51.9715 -0.0286824,40.3076 5.9574e-5,25.9481 0.0287608,11.609 11.661,-4.94951e-6 26.0001,-4.94951e-6 Z"
       fill="#fc3fcd"
       fill-rule="evenodd"
       transform="matrix(1,0,0,-1,666,1264)"
       id="path10" /><path
       d="m 198,1145.12 115.759,0.01 v 13.75 L 198,1158.87 Z m 57.223,-33.5 72.692,40.38 -72.693,40.38 c -3.319,1.85 -7.504,0.65 -9.348,-2.67 -1.844,-3.32 -0.648,-7.5 2.671,-9.34 l 61.875,-34.38 v 12.02 l -61.875,-34.38 c -3.319,-1.84 -4.515,-6.02 -2.671,-9.34 1.844,-3.32 6.03,-4.52 9.349,-2.67 z"
       id="path11" /><path
       d="M 1.90972e-5,-6.875 115.759,-6.87468 v 13.75 L -1.90972e-5,6.875 Z M 57.2227,-40.3847 129.915,3.60887e-4 57.2225,40.385 c -3.3192,1.8439 -7.5047,0.6481 -9.3487,-2.6711 -1.8439,-3.3191 -0.6481,-7.5046 2.6711,-9.3486 L 112.42,-6.00952 V 6.01014 L 50.545,-28.365 c -3.3191,-1.844 -4.5149,-6.0295 -2.671,-9.3487 1.844,-3.3191 6.0295,-4.5149 9.3487,-2.671 z"
       transform="matrix(-1,0,0,1,898.921,1150)"
       id="path12" /><rect
       x="434"
       y="1067"
       width="234"
       height="234"
       fill="#0f9ed5"
       id="rect12" /></g></svg>
