<?xml version="1.0" encoding="UTF-8" standalone="no"?>
<svg
   width="78.6875"
   height="78.293747"
   xml:space="preserve"
   overflow="hidden"
   version="1.1"
   id="svg16"
   sodipodi:docname="OpenButton_10.svg"
   inkscape:version="1.3 (0e150ed6c4, 2023-07-21)"
   xmlns:inkscape="http://www.inkscape.org/namespaces/inkscape"
   xmlns:sodipodi="http://sodipodi.sourceforge.net/DTD/sodipodi-0.dtd"
   xmlns="http://www.w3.org/2000/svg"
   xmlns:svg="http://www.w3.org/2000/svg"><sodipodi:namedview
     id="namedview16"
     pagecolor="#ffffff"
     bordercolor="#000000"
     borderopacity="0.25"
     inkscape:showpageshadow="2"
     inkscape:pageopacity="0.0"
     inkscape:pagecheckerboard="0"
     inkscape:deskcolor="#d1d1d1"
     inkscape:zoom="1.4339853"
     inkscape:cx="40.098039"
     inkscape:cy="56.834612"
     inkscape:window-width="2560"
     inkscape:window-height="1369"
     inkscape:window-x="-8"
     inkscape:window-y="-8"
     inkscape:window-maximized="1"
     inkscape:current-layer="svg16" /><defs
     id="defs1"><clipPath
       id="clip0"><rect
         x="1038"
         y="127"
         width="853"
         height="818"
         id="rect1" /></clipPath></defs><g
     clip-path="url(#clip0)"
     transform="matrix(0.1,0,0,0.1,-107.00625,-12.7)"
     id="g16"><rect
       x="1073"
       y="127"
       width="780"
       height="779"
       fill="#ffffff"
       id="rect2" /><text
       font-family="Arial, Arial_MSFontService, sans-serif"
       font-weight="700"
       font-size="110px"
       transform="translate(1400.12,294)"
       id="text2">+2</text><text
       font-family="Arial, Arial_MSFontService, sans-serif"
       font-weight="700"
       font-size="110px"
       transform="translate(1364.87,426)"
       id="text3">mm</text><rect
       x="1073.5"
       y="720.5"
       width="780"
       height="186"
       stroke="#000000"
       stroke-width="6.875"
       stroke-miterlimit="8"
       id="rect3" /><text
       fill="#ffffff"
       font-family="Arial, Arial_MSFontService, sans-serif"
       font-weight="700"
       font-size="110px"
       transform="translate(1307.01,854)"
       id="text4">OPEN</text><rect
       x="1270.5"
       y="202.5"
       width="51.999901"
       height="182"
       stroke="#000000"
       stroke-width="6.875"
       stroke-miterlimit="8"
       id="rect4" /><path
       d="m 1325.05,206 c 14.36,0.029 25.98,11.693 25.95,26.052 -0.03,14.339 -11.66,25.948 -26,25.948 z"
       fill="#fc3fcd"
       fill-rule="evenodd"
       id="path4" /><path
       d="m 1325.05,267 c 14.36,0.029 25.98,11.693 25.95,26.052 -0.03,14.339 -11.66,25.948 -26,25.948 z"
       fill="#fc3fcd"
       fill-rule="evenodd"
       id="path5" /><path
       d="m 1325.05,324 c 14.36,0.029 25.98,11.693 25.95,26.052 -0.03,14.339 -11.66,25.948 -26,25.948 z"
       fill="#fc3fcd"
       fill-rule="evenodd"
       id="path6" /><path
       d="m 1136.5,718.5 136.43,-455 h 46.57 l -136.43,455 z"
       stroke="#000000"
       stroke-width="6.875"
       stroke-miterlimit="8"
       fill-rule="evenodd"
       id="path7" /><path
       d="M 0,455 136.432,0 H 183 L 46.5679,455 Z"
       stroke="#000000"
       stroke-width="6.875"
       stroke-miterlimit="8"
       fill-rule="evenodd"
       transform="matrix(-1,0,0,1,1793.5,272.5)"
       id="path8" /><rect
       x="1610.5"
       y="206.5"
       width="51.999901"
       height="182"
       stroke="#000000"
       stroke-width="6.875"
       stroke-miterlimit="8"
       id="rect8" /><path
       d="M 25.9479,51.9998 C 11.5886,51.9711 -0.0286822,40.3073 5.95736e-5,25.9479 0.0287606,11.6089 11.6609,-4.94947e-6 26,-4.94947e-6 Z"
       fill="#fc3fcd"
       fill-rule="evenodd"
       transform="matrix(1,0,0,-1,1582,261)"
       id="path9" /><path
       d="M 25.9479,51.9998 C 11.5886,51.9711 -0.0286822,40.3073 5.95736e-5,25.9479 0.0287606,11.6089 11.6609,-4.94947e-6 26,-4.94947e-6 Z"
       fill="#fc3fcd"
       fill-rule="evenodd"
       transform="matrix(1,0,0,-1,1582,320)"
       id="path10" /><path
       d="M 25.9473,52.0002 C 11.5882,51.9715 -0.0287392,40.3075 2.70739e-6,25.9481 0.028704,11.609 11.6606,-5.13301e-6 25.9993,-5.13301e-6 Z"
       fill="#fc3fcd"
       fill-rule="evenodd"
       transform="matrix(1,0,0,-1,1582,377)"
       id="path11" /><path
       d="M 1.90972e-5,-6.875 115.759,-6.87468 v 13.75 L -1.90972e-5,6.875 Z M 57.2227,-40.3847 129.915,3.60887e-4 57.2225,40.385 c -3.3192,1.8439 -7.5047,0.6481 -9.3487,-2.6711 -1.8439,-3.3191 -0.6481,-7.5046 2.6711,-9.3486 L 112.42,-6.00952 V 6.01014 L 50.545,-28.365 c -3.3191,-1.844 -4.5149,-6.0295 -2.671,-9.3487 1.844,-3.3191 6.0295,-4.5149 9.3487,-2.671 z"
       transform="matrix(-1,0,0,1,1243.92,265)"
       id="path12" /><path
       d="m 1361,558 h 208.08"
       stroke="#000000"
       stroke-width="13.75"
       stroke-miterlimit="8"
       fill="none"
       fill-rule="evenodd"
       id="path13" /><path
       d="M 1358,491 V 620.921"
       stroke="#000000"
       stroke-width="13.75"
       stroke-miterlimit="8"
       fill="none"
       fill-rule="evenodd"
       id="path14" /><path
       d="M 1571,495 V 624.921"
       stroke="#000000"
       stroke-width="13.75"
       stroke-miterlimit="8"
       fill="none"
       fill-rule="evenodd"
       id="path15" /><path
       d="m 1685,256.125 h 115.76 v 13.75 H 1685 Z m 57.22,-33.51 72.7,40.385 -72.7,40.385 c -3.32,1.844 -7.5,0.648 -9.35,-2.671 -1.84,-3.319 -0.64,-7.505 2.68,-9.349 l 61.87,-34.375 v 12.02 l -61.87,-34.375 c -3.32,-1.844 -4.52,-6.03 -2.68,-9.349 1.85,-3.319 6.03,-4.515 9.35,-2.671 z"
       id="path16" /></g></svg>
